<svg width="112" height="17" viewBox="0 0 112 17" fill="none" xmlns="http://www.w3.org/2000/svg">
<path d="M4.18943 13.633H12.2517V16.7645H0V1.22438H4.18943V13.633Z" fill="#0A0A0A"/>
<path d="M19.8114 4.75623C21.0942 4.75623 22.2146 4.99954 23.1727 5.48615C24.147 5.95706 24.902 6.65559 25.4379 7.58172C25.99 8.49215 26.266 9.59095 26.266 10.8781C26.266 12.1653 25.99 13.2719 25.4379 14.1981C24.902 15.1085 24.147 15.807 23.1727 16.2936C22.2146 16.7645 21.0942 17 19.8114 17C18.561 17 17.4487 16.7645 16.4744 16.2936C15.5002 15.807 14.737 15.1085 14.1849 14.1981C13.649 13.2719 13.3811 12.1653 13.3811 10.8781C13.3811 9.59095 13.649 8.49215 14.1849 7.58172C14.737 6.65559 15.5002 5.95706 16.4744 5.48615C17.4487 4.99954 18.561 4.75623 19.8114 4.75623ZM19.8114 7.60526C19.3405 7.60526 18.9345 7.71514 18.5935 7.9349C18.2525 8.15466 17.9927 8.50785 17.8141 8.99446C17.6355 9.48107 17.5462 10.109 17.5462 10.8781C17.5462 11.6473 17.6355 12.2752 17.8141 12.7618C17.9927 13.2327 18.2525 13.5859 18.5935 13.8213C18.9345 14.0411 19.3405 14.151 19.8114 14.151C20.2985 14.151 20.7126 14.0411 21.0536 13.8213C21.3946 13.5859 21.6544 13.2327 21.833 12.7618C22.0116 12.2752 22.101 11.6473 22.101 10.8781C22.101 10.109 22.0116 9.48107 21.833 8.99446C21.6544 8.50785 21.3946 8.15466 21.0536 7.9349C20.7126 7.71514 20.2985 7.60526 19.8114 7.60526Z" fill="#0A0A0A"/>
<path d="M34.1894 4.75623C35.4722 4.75623 36.5926 4.99954 37.5507 5.48615C38.525 5.95706 39.28 6.65559 39.8159 7.58172C40.368 8.49215 40.6441 9.59095 40.6441 10.8781C40.6441 12.1653 40.368 13.2719 39.8159 14.1981C39.28 15.1085 38.525 15.807 37.5507 16.2936C36.5926 16.7645 35.4722 17 34.1894 17C32.9391 17 31.8268 16.7645 30.8525 16.2936C29.8782 15.807 29.115 15.1085 28.5629 14.1981C28.027 13.2719 27.7591 12.1653 27.7591 10.8781C27.7591 9.59095 28.027 8.49215 28.5629 7.58172C29.115 6.65559 29.8782 5.95706 30.8525 5.48615C31.8268 4.99954 32.9391 4.75623 34.1894 4.75623ZM34.1894 7.60526C33.7185 7.60526 33.3125 7.71514 32.9715 7.9349C32.6305 8.15466 32.3707 8.50785 32.1921 8.99446C32.0135 9.48107 31.9242 10.109 31.9242 10.8781C31.9242 11.6473 32.0135 12.2752 32.1921 12.7618C32.3707 13.2327 32.6305 13.5859 32.9715 13.8213C33.3125 14.0411 33.7185 14.151 34.1894 14.151C34.6765 14.151 35.0906 14.0411 35.4316 13.8213C35.7726 13.5859 36.0324 13.2327 36.211 12.7618C36.3897 12.2752 36.479 11.6473 36.479 10.8781C36.479 10.109 36.3897 9.48107 36.211 8.99446C36.0324 8.50785 35.7726 8.15466 35.4316 7.9349C35.0906 7.71514 34.6765 7.60526 34.1894 7.60526Z" fill="#0A0A0A"/>
<path d="M56.1425 4.99169L50.2968 11.0194L49.5173 11.2313L46.0343 14.9986L46.0099 10.9017L51.539 4.99169H56.1425ZM46.9111 0V16.7645H42.7704V0H46.9111ZM50.9301 8.52355L56.4104 16.7645H51.8313L48.2264 10.8781L50.9301 8.52355Z" fill="#0A0A0A"/>
<path d="M72.5041 1.22438V16.7645H67.8519L62.8587 8.35873L61.6408 6.05125H61.6164L61.7139 8.92382V16.7645H58.0116V1.22438H62.6638L67.657 9.63019L68.8749 11.9377H68.8992L68.8018 9.0651V1.22438H72.5041Z" fill="#0A0A0A"/>
<path d="M81.2958 4.75623C82.5786 4.75623 83.699 4.99954 84.6571 5.48615C85.6313 5.95706 86.3864 6.65559 86.9223 7.58172C87.4744 8.49215 87.7504 9.59095 87.7504 10.8781C87.7504 12.1653 87.4744 13.2719 86.9223 14.1981C86.3864 15.1085 85.6313 15.807 84.6571 16.2936C83.699 16.7645 82.5786 17 81.2958 17C80.0454 17 78.9331 16.7645 77.9588 16.2936C76.9846 15.807 76.2214 15.1085 75.6693 14.1981C75.1334 13.2719 74.8655 12.1653 74.8655 10.8781C74.8655 9.59095 75.1334 8.49215 75.6693 7.58172C76.2214 6.65559 76.9846 5.95706 77.9588 5.48615C78.9331 4.99954 80.0454 4.75623 81.2958 4.75623ZM81.2958 7.60526C80.8249 7.60526 80.4189 7.71514 80.0779 7.9349C79.7369 8.15466 79.4771 8.50785 79.2985 8.99446C79.1199 9.48107 79.0305 10.109 79.0305 10.8781C79.0305 11.6473 79.1199 12.2752 79.2985 12.7618C79.4771 13.2327 79.7369 13.5859 80.0779 13.8213C80.4189 14.0411 80.8249 14.151 81.2958 14.151C81.7829 14.151 82.197 14.0411 82.538 13.8213C82.879 13.5859 83.1388 13.2327 83.3174 12.7618C83.496 12.2752 83.5853 11.6473 83.5853 10.8781C83.5853 10.109 83.496 9.48107 83.3174 8.99446C83.1388 8.50785 82.879 8.15466 82.538 7.9349C82.197 7.71514 81.7829 7.60526 81.2958 7.60526Z" fill="#0A0A0A"/>
<path d="M94.8723 1.24792V12.5734C94.8723 13.1385 95.0103 13.5466 95.2864 13.7978C95.5786 14.0332 95.9765 14.151 96.4799 14.151C96.8696 14.151 97.2025 14.1117 97.4785 14.0332C97.7708 13.9391 98.0306 13.8056 98.2579 13.633L98.6964 16.1053C98.2904 16.3878 97.7789 16.6076 97.1619 16.7645C96.5448 16.9215 95.9115 17 95.262 17C94.3364 17 93.5326 16.8744 92.8506 16.6233C92.1849 16.3721 91.6653 15.9718 91.2918 15.4224C90.9345 14.873 90.7478 14.1431 90.7316 13.2327V2.35457L94.8723 1.24792ZM98.5015 4.99169V7.84072H88.6368V4.99169H98.5015Z" fill="#0A0A0A"/>
<path d="M106.154 17C104.807 17 103.637 16.7567 102.647 16.2701C101.673 15.7835 100.917 15.0849 100.382 14.1745C99.8458 13.2641 99.5779 12.1653 99.5779 10.8781C99.5779 9.59095 99.8458 8.49215 100.382 7.58172C100.917 6.67128 101.664 5.97276 102.622 5.48615C103.597 4.99954 104.709 4.75623 105.959 4.75623C107.242 4.75623 108.33 4.99954 109.223 5.48615C110.133 5.95706 110.823 6.61634 111.294 7.46399C111.765 8.29594 112 9.25346 112 10.3366C112 10.6191 111.992 10.9017 111.976 11.1842C111.959 11.4668 111.935 11.7022 111.903 11.8906H102.257V9.74792H110.076L108.103 10.4778C108.103 9.53601 107.924 8.81394 107.567 8.31163C107.226 7.80933 106.69 7.55817 105.959 7.55817C105.44 7.55817 104.993 7.6759 104.62 7.91136C104.263 8.14681 103.986 8.5157 103.792 9.01801C103.613 9.52031 103.524 10.1639 103.524 10.9488C103.524 11.7179 103.629 12.3458 103.84 12.8324C104.051 13.3033 104.352 13.6487 104.742 13.8684C105.131 14.0725 105.602 14.1745 106.154 14.1745C106.771 14.1745 107.258 14.0568 107.616 13.8213C107.989 13.5859 108.265 13.2562 108.444 12.8324L111.756 13.892C111.529 14.5669 111.131 15.1399 110.563 15.6108C110.011 16.066 109.345 16.4114 108.566 16.6468C107.802 16.8823 106.999 17 106.154 17Z" fill="#0A0A0A"/>
</svg>
