<svg width="24" height="24" viewBox="0 0 24 24" fill="none" xmlns="http://www.w3.org/2000/svg">
<path fill-rule="evenodd" clip-rule="evenodd" d="M3.5 2H2V3.5H3.5H20.5H22V2H20.5H3.5ZM3.5 21H2V22.5H3.5H20.5H22V21H20.5H3.5ZM3.5 7H20.5V17.5H3.5V7ZM2 5.5H3.5H20.5H22V7V17.5V19H20.5H3.5H2V17.5V7V5.5Z" fill="#0A0A0A"/>
<path d="M2 2V1.7H1.7V2H2ZM2 3.5H1.7V3.8H2V3.5ZM22 3.5V3.8H22.3V3.5H22ZM22 2H22.3V1.7H22V2ZM2 21V20.7H1.7V21H2ZM2 22.5H1.7V22.8H2V22.5ZM22 22.5V22.8H22.3V22.5H22ZM22 21H22.3V20.7H22V21ZM20.5 7H20.8V6.7H20.5V7ZM3.5 7V6.7H3.2V7H3.5ZM20.5 17.5V17.8H20.8V17.5H20.5ZM3.5 17.5H3.2V17.8H3.5V17.5ZM2 5.5V5.2H1.7V5.5H2ZM22 5.5H22.3V5.2H22V5.5ZM22 19V19.3H22.3V19H22ZM2 19H1.7V19.3H2V19ZM2 2.3H3.5V1.7H2V2.3ZM2.3 3.5V2H1.7V3.5H2.3ZM3.5 3.2H2V3.8H3.5V3.2ZM20.5 3.2H3.5V3.8H20.5V3.2ZM22 3.2H20.5V3.8H22V3.2ZM21.7 2V3.5H22.3V2H21.7ZM20.5 2.3H22V1.7H20.5V2.3ZM3.5 2.3H20.5V1.7H3.5V2.3ZM2 21.3H3.5V20.7H2V21.3ZM2.3 22.5V21H1.7V22.5H2.3ZM3.5 22.2H2V22.8H3.5V22.2ZM20.5 22.2H3.5V22.8H20.5V22.2ZM22 22.2H20.5V22.8H22V22.2ZM21.7 21V22.5H22.3V21H21.7ZM20.5 21.3H22V20.7H20.5V21.3ZM3.5 21.3H20.5V20.7H3.5V21.3ZM20.5 6.7H3.5V7.3H20.5V6.7ZM20.8 17.5V7H20.2V17.5H20.8ZM3.5 17.8H20.5V17.2H3.5V17.8ZM3.2 7V17.5H3.8V7H3.2ZM3.5 5.2H2V5.8H3.5V5.2ZM20.5 5.2H3.5V5.8H20.5V5.2ZM22 5.2H20.5V5.8H22V5.2ZM22.3 7V5.5H21.7V7H22.3ZM22.3 17.5V7H21.7V17.5H22.3ZM22.3 19V17.5H21.7V19H22.3ZM20.5 19.3H22V18.7H20.5V19.3ZM3.5 19.3H20.5V18.7H3.5V19.3ZM2 19.3H3.5V18.7H2V19.3ZM1.7 17.5V19H2.3V17.5H1.7ZM1.7 7V17.5H2.3V7H1.7ZM1.7 5.5V7H2.3V5.5H1.7Z" fill="#0A0A0A"/>
</svg>
