<svg width="75" height="82" viewBox="0 0 75 82" fill="none" xmlns="http://www.w3.org/2000/svg">
<path d="M44.5 53.1482C44.5 57.6087 42.0872 61.6853 38.1102 64.664C34.133 67.6428 28.6156 69.5 22.5 69.5C16.3844 69.5 10.867 67.6428 6.88983 64.664C2.91281 61.6853 0.5 57.6087 0.5 53.1482V47.8148H44.5V53.1482Z" fill="white" stroke="#0A0A0A"/>
<path d="M44.5 47.9629C44.5 52.4235 42.0872 56.5001 38.1102 59.4788C34.133 62.4576 28.6156 64.3148 22.5 64.3148C16.3844 64.3148 10.867 62.4576 6.88983 59.4788C2.91281 56.5001 0.5 52.4235 0.5 47.9629C0.5 43.5024 2.91281 39.4257 6.88983 36.4471C10.867 33.4683 16.3844 31.6111 22.5 31.6111C28.6156 31.6111 34.133 33.4683 38.1102 36.4471C42.0872 39.4257 44.5 43.5024 44.5 47.9629Z" fill="white" stroke="#0A0A0A"/>
<path d="M44.5 47.963C44.5 52.4235 42.0872 56.5002 38.1102 59.4788C34.133 62.4576 28.6156 64.3148 22.5 64.3148C16.3844 64.3148 10.867 62.4576 6.88983 59.4788C2.91281 56.5002 0.5 52.4235 0.5 47.963V42.6296H44.5V47.963Z" fill="white" stroke="#0A0A0A"/>
<path d="M44.5 42.7778C44.5 47.2383 42.0872 51.3149 38.1102 54.2936C34.133 57.2724 28.6156 59.1296 22.5 59.1296C16.3844 59.1296 10.867 57.2724 6.88983 54.2936C2.91281 51.3149 0.5 47.2383 0.5 42.7778C0.5 38.3172 2.91281 34.2406 6.88983 31.2619C10.867 28.2831 16.3844 26.4259 22.5 26.4259C28.6156 26.4259 34.133 28.2831 38.1102 31.2619C42.0872 34.2406 44.5 38.3172 44.5 42.7778Z" fill="white" stroke="#0A0A0A"/>
<path d="M44.5 42.7778C44.5 47.2383 42.0872 51.315 38.1102 54.2937C34.133 57.2724 28.6156 59.1296 22.5 59.1296C16.3844 59.1296 10.867 57.2724 6.88983 54.2937C2.91281 51.315 0.5 47.2383 0.5 42.7778V37.4445H44.5V42.7778Z" fill="white" stroke="#0A0A0A"/>
<path d="M44.5 37.5926C44.5 42.0531 42.0872 46.1298 38.1102 49.1084C34.133 52.0872 28.6156 53.9444 22.5 53.9444C16.3844 53.9444 10.867 52.0872 6.88983 49.1084C2.91281 46.1298 0.5 42.0531 0.5 37.5926C0.5 33.132 2.91281 29.0554 6.88983 26.0767C10.867 23.0979 16.3844 21.2407 22.5 21.2407C28.6156 21.2407 34.133 23.0979 38.1102 26.0767C42.0872 29.0554 44.5 33.132 44.5 37.5926Z" fill="white" stroke="#0A0A0A"/>
<path d="M44.5 37.5926C44.5 42.0532 42.0872 46.1298 38.1102 49.1085C34.133 52.0872 28.6156 53.9445 22.5 53.9445C16.3844 53.9445 10.867 52.0872 6.88983 49.1085C2.91281 46.1298 0.5 42.0532 0.5 37.5926V32.2593H44.5V37.5926Z" fill="white" stroke="#0A0A0A"/>
<path d="M44.5 32.4074C44.5 36.8679 42.0872 40.9446 38.1102 43.9233C34.133 46.902 28.6156 48.7592 22.5 48.7592C16.3844 48.7592 10.867 46.902 6.88983 43.9233C2.91281 40.9446 0.5 36.8679 0.5 32.4074C0.5 27.9468 2.91281 23.8702 6.88983 20.8915C10.867 17.9128 16.3844 16.0555 22.5 16.0555C28.6156 16.0555 34.133 17.9128 38.1102 20.8915C42.0872 23.8702 44.5 27.9468 44.5 32.4074Z" fill="white" stroke="#0A0A0A"/>
<path d="M44.5 32.4074C44.5 36.868 42.0872 40.9446 38.1102 43.9233C34.133 46.9021 28.6156 48.7593 22.5 48.7593C16.3844 48.7593 10.867 46.9021 6.88983 43.9233C2.91281 40.9446 0.5 36.868 0.5 32.4074V27.0741H44.5V32.4074Z" fill="white" stroke="#0A0A0A"/>
<path d="M44.5 27.2222C44.5 31.6828 42.0872 35.7594 38.1102 38.7381C34.133 41.7168 28.6156 43.5741 22.5 43.5741C16.3844 43.5741 10.867 41.7168 6.88983 38.7381C2.91281 35.7594 0.5 31.6828 0.5 27.2222C0.5 22.7617 2.91281 18.685 6.88983 15.7064C10.867 12.7276 16.3844 10.8704 22.5 10.8704C28.6156 10.8704 34.133 12.7276 38.1102 15.7064C42.0872 18.685 44.5 22.7617 44.5 27.2222Z" fill="white" stroke="#0A0A0A"/>
<path d="M44.5 27.2222C44.5 31.6828 42.0872 35.7594 38.1102 38.7381C34.133 41.7169 28.6156 43.5741 22.5 43.5741C16.3844 43.5741 10.867 41.7169 6.88983 38.7381C2.91281 35.7594 0.5 31.6828 0.5 27.2222V21.8889H44.5V27.2222Z" fill="white" stroke="#0A0A0A"/>
<path d="M44.5 22.037C44.5 26.4976 42.0872 30.5742 38.1102 33.5529C34.133 36.5317 28.6156 38.3889 22.5 38.3889C16.3844 38.3889 10.867 36.5317 6.88983 33.5529C2.91281 30.5742 0.5 26.4976 0.5 22.037C0.5 17.5765 2.91281 13.4998 6.88983 10.5212C10.867 7.5424 16.3844 5.68518 22.5 5.68518C28.6156 5.68518 34.133 7.5424 38.1102 10.5212C42.0872 13.4998 44.5 17.5765 44.5 22.037Z" fill="white" stroke="#0A0A0A"/>
<path d="M44.5 22.0371C44.5 26.4976 42.0872 30.5743 38.1102 33.5529C34.133 36.5317 28.6156 38.3889 22.5 38.3889C16.3844 38.3889 10.867 36.5317 6.88983 33.5529C2.91281 30.5743 0.5 26.4976 0.5 22.0371V16.7037H44.5V22.0371Z" fill="white" stroke="#0A0A0A"/>
<path d="M44.5 16.8519C44.5 21.3124 42.0872 25.389 38.1102 28.3677C34.133 31.3465 28.6156 33.2037 22.5 33.2037C16.3844 33.2037 10.867 31.3465 6.88983 28.3677C2.91281 25.389 0.5 21.3124 0.5 16.8519C0.5 12.3913 2.91281 8.31466 6.88983 5.33599C10.867 2.35722 16.3844 0.5 22.5 0.5C28.6156 0.5 34.133 2.35722 38.1102 5.33599C42.0872 8.31466 44.5 12.3913 44.5 16.8519Z" fill="white" stroke="#0A0A0A"/>
<path d="M40.0883 16.5C40.0883 19.7409 38.1879 22.7287 35.0062 24.9275C31.8264 27.1249 27.4064 28.5 22.5001 28.5C17.5938 28.5 13.1738 27.1249 9.99404 24.9275C6.81227 22.7287 4.91187 19.7409 4.91187 16.5C4.91187 13.2591 6.81227 10.2713 9.99404 8.0725C13.1738 5.87512 17.5938 4.5 22.5001 4.5C27.4064 4.5 31.8264 5.87512 35.0062 8.0725C38.1879 10.2713 40.0883 13.2591 40.0883 16.5Z" stroke="#0A0A0A"/>
<path d="M74.5 64.5926C74.5 69.0532 72.0872 73.1298 68.1102 76.1085C64.133 79.0872 58.6156 80.9445 52.5 80.9445C46.3844 80.9445 40.867 79.0872 36.8898 76.1085C32.9128 73.1298 30.5 69.0532 30.5 64.5926V59.2593H74.5V64.5926Z" fill="white" stroke="#0A0A0A"/>
<path d="M74.5 59.4074C74.5 63.8679 72.0872 67.9446 68.1102 70.9233C64.133 73.902 58.6156 75.7592 52.5 75.7592C46.3844 75.7592 40.867 73.902 36.8898 70.9233C32.9128 67.9446 30.5 63.8679 30.5 59.4074C30.5 54.9468 32.9128 50.8702 36.8898 47.8915C40.867 44.9128 46.3844 43.0555 52.5 43.0555C58.6156 43.0555 64.133 44.9128 68.1102 47.8915C72.0872 50.8702 74.5 54.9468 74.5 59.4074Z" fill="white" stroke="#0A0A0A"/>
<path d="M74.5 59.4074C74.5 63.868 72.0872 67.9446 68.1102 70.9233C64.133 73.9021 58.6156 75.7593 52.5 75.7593C46.3844 75.7593 40.867 73.9021 36.8898 70.9233C32.9128 67.9446 30.5 63.868 30.5 59.4074V54.0741H74.5V59.4074Z" fill="white" stroke="#0A0A0A"/>
<path d="M74.5 54.2222C74.5 58.6828 72.0872 62.7594 68.1102 65.7381C64.133 68.7168 58.6156 70.5741 52.5 70.5741C46.3844 70.5741 40.867 68.7168 36.8898 65.7381C32.9128 62.7594 30.5 58.6828 30.5 54.2222C30.5 49.7617 32.9128 45.685 36.8898 42.7064C40.867 39.7276 46.3844 37.8704 52.5 37.8704C58.6156 37.8704 64.133 39.7276 68.1102 42.7064C72.0872 45.685 74.5 49.7617 74.5 54.2222Z" fill="white" stroke="#0A0A0A"/>
<path d="M74.5 54.2222C74.5 58.6828 72.0872 62.7594 68.1102 65.7381C64.133 68.7169 58.6156 70.5741 52.5 70.5741C46.3844 70.5741 40.867 68.7169 36.8898 65.7381C32.9128 62.7594 30.5 58.6828 30.5 54.2222V48.8889H74.5V54.2222Z" fill="white" stroke="#0A0A0A"/>
<path d="M74.5 49.037C74.5 53.4976 72.0872 57.5742 68.1102 60.5529C64.133 63.5317 58.6156 65.3889 52.5 65.3889C46.3844 65.3889 40.867 63.5317 36.8898 60.5529C32.9128 57.5742 30.5 53.4976 30.5 49.037C30.5 44.5765 32.9128 40.4998 36.8898 37.5212C40.867 34.5424 46.3844 32.6852 52.5 32.6852C58.6156 32.6852 64.133 34.5424 68.1102 37.5212C72.0872 40.4998 74.5 44.5765 74.5 49.037Z" fill="white" stroke="#0A0A0A"/>
<path d="M74.5 49.0371C74.5 53.4976 72.0872 57.5743 68.1102 60.5529C64.133 63.5317 58.6156 65.3889 52.5 65.3889C46.3844 65.3889 40.867 63.5317 36.8898 60.5529C32.9128 57.5743 30.5 53.4976 30.5 49.0371V43.7037H74.5V49.0371Z" fill="white" stroke="#0A0A0A"/>
<path d="M74.5 43.8519C74.5 48.3124 72.0872 52.389 68.1102 55.3677C64.133 58.3465 58.6156 60.2037 52.5 60.2037C46.3844 60.2037 40.867 58.3465 36.8898 55.3677C32.9128 52.389 30.5 48.3124 30.5 43.8519C30.5 39.3913 32.9128 35.3147 36.8898 32.336C40.867 29.3572 46.3844 27.5 52.5 27.5C58.6156 27.5 64.133 29.3572 68.1102 32.336C72.0872 35.3147 74.5 39.3913 74.5 43.8519Z" fill="white" stroke="#0A0A0A"/>
<path d="M70.0883 43.5C70.0883 46.7409 68.1879 49.7287 65.0062 51.9275C61.8264 54.1249 57.4064 55.5 52.5001 55.5C47.5938 55.5 43.1738 54.1249 39.994 51.9275C36.8123 49.7287 34.9119 46.7409 34.9119 43.5C34.9119 40.2591 36.8123 37.2713 39.994 35.0725C43.1738 32.8751 47.5938 31.5 52.5001 31.5C57.4064 31.5 61.8264 32.8751 65.0062 35.0725C68.1879 37.2713 70.0883 40.2591 70.0883 43.5Z" fill="white" stroke="#0A0A0A"/>
</svg>
