<svg width="23" height="33" viewBox="0 0 23 33" fill="none" xmlns="http://www.w3.org/2000/svg">
<path d="M22.75 24.351C22.75 26.3744 21.5285 28.236 19.4924 29.6031C17.4578 30.9691 14.6328 31.8221 11.5 31.8221C8.36719 31.8221 5.5422 30.9691 3.50763 29.6031C1.47146 28.236 0.25 26.3744 0.25 24.351V21.9283H22.75V24.351Z" fill="#E6EDFF" stroke="#0049FF" stroke-width="0.5"/>
<path d="M22.75 21.9754C22.75 23.9987 21.5285 25.8604 19.4924 27.2274C17.4578 28.5935 14.6328 29.4465 11.5 29.4465C8.36719 29.4465 5.5422 28.5935 3.50763 27.2274C1.47146 25.8604 0.25 23.9987 0.25 21.9754C0.25 19.952 1.47146 18.0904 3.50763 16.7233C5.5422 15.3573 8.36719 14.5043 11.5 14.5043C14.6328 14.5043 17.4578 15.3573 19.4924 16.7233C21.5285 18.0904 22.75 19.952 22.75 21.9754Z" fill="#E6EDFF" stroke="#0049FF" stroke-width="0.5"/>
<path d="M22.75 21.9754C22.75 23.9988 21.5285 25.8604 19.4924 27.2275C17.4578 28.5935 14.6328 29.4465 11.5 29.4465C8.36719 29.4465 5.5422 28.5935 3.50763 27.2275C1.47146 25.8604 0.25 23.9988 0.25 21.9754V19.5527H22.75V21.9754Z" fill="#E6EDFF" stroke="#0049FF" stroke-width="0.5"/>
<path d="M22.75 19.5998C22.75 21.6231 21.5285 23.4848 19.4924 24.8518C17.4578 26.2178 14.6328 27.0708 11.5 27.0708C8.36719 27.0708 5.5422 26.2178 3.50763 24.8518C1.47146 23.4848 0.25 21.6231 0.25 19.5998C0.25 17.5764 1.47146 15.7148 3.50763 14.3477C5.5422 12.9817 8.36719 12.1287 11.5 12.1287C14.6328 12.1287 17.4578 12.9817 19.4924 14.3477C21.5285 15.7148 22.75 17.5764 22.75 19.5998Z" fill="#E6EDFF" stroke="#0049FF" stroke-width="0.5"/>
<path d="M22.75 19.5997C22.75 21.623 21.5285 23.4847 19.4924 24.8518C17.4578 26.2178 14.6328 27.0708 11.5 27.0708C8.36719 27.0708 5.5422 26.2178 3.50763 24.8518C1.47146 23.4847 0.25 21.623 0.25 19.5997V17.177H22.75V19.5997Z" fill="#E6EDFF" stroke="#0049FF" stroke-width="0.5"/>
<path d="M22.75 17.224C22.75 19.2474 21.5285 21.109 19.4924 22.4761C17.4578 23.8421 14.6328 24.6951 11.5 24.6951C8.36719 24.6951 5.5422 23.8421 3.50763 22.4761C1.47146 21.109 0.25 19.2474 0.25 17.224C0.25 15.2007 1.47146 13.339 3.50763 11.9719C5.5422 10.6059 8.36719 9.75293 11.5 9.75293C14.6328 9.75293 17.4578 10.6059 19.4924 11.9719C21.5285 13.339 22.75 15.2007 22.75 17.224Z" fill="#E6EDFF" stroke="#0049FF" stroke-width="0.5"/>
<path d="M22.75 17.224C22.75 19.2473 21.5285 21.109 19.4924 22.476C17.4578 23.842 14.6328 24.695 11.5 24.695C8.36719 24.695 5.5422 23.842 3.50763 22.476C1.47146 21.109 0.25 19.2473 0.25 17.224V14.8013H22.75V17.224Z" fill="#E6EDFF" stroke="#0049FF" stroke-width="0.5"/>
<path d="M22.75 14.8483C22.75 16.8716 21.5285 18.7333 19.4924 20.1004C17.4578 21.4664 14.6328 22.3194 11.5 22.3194C8.36719 22.3194 5.5422 21.4664 3.50763 20.1004C1.47146 18.7333 0.25 16.8716 0.25 14.8483C0.25 12.8249 1.47146 10.9633 3.50763 9.59621C5.5422 8.2302 8.36719 7.3772 11.5 7.3772C14.6328 7.3772 17.4578 8.2302 19.4924 9.59621C21.5285 10.9633 22.75 12.8249 22.75 14.8483Z" fill="#E6EDFF" stroke="#0049FF" stroke-width="0.5"/>
<path d="M22.75 14.8482C22.75 16.8716 21.5285 18.7332 19.4924 20.1003C17.4578 21.4663 14.6328 22.3193 11.5 22.3193C8.36719 22.3193 5.5422 21.4663 3.50763 20.1003C1.47146 18.7332 0.25 16.8716 0.25 14.8482V12.4255H22.75V14.8482Z" fill="#E6EDFF" stroke="#0049FF" stroke-width="0.5"/>
<path d="M22.75 12.4726C22.75 14.4959 21.5285 16.3576 19.4924 17.7246C17.4578 19.0906 14.6328 19.9436 11.5 19.9436C8.36719 19.9436 5.5422 19.0906 3.50763 17.7246C1.47146 16.3576 0.25 14.4959 0.25 12.4726C0.25 10.4492 1.47146 8.58756 3.50763 7.22048C5.5422 5.85447 8.36719 5.00146 11.5 5.00146C14.6328 5.00146 17.4578 5.85447 19.4924 7.22048C21.5285 8.58756 22.75 10.4492 22.75 12.4726Z" fill="#E6EDFF" stroke="#0049FF" stroke-width="0.5"/>
<path d="M22.75 12.4725C22.75 14.4958 21.5285 16.3575 19.4924 17.7246C17.4578 19.0906 14.6328 19.9436 11.5 19.9436C8.36719 19.9436 5.5422 19.0906 3.50763 17.7246C1.47146 16.3575 0.25 14.4958 0.25 12.4725V10.0498H22.75V12.4725Z" fill="#E6EDFF" stroke="#0049FF" stroke-width="0.5"/>
<path d="M22.75 10.0968C22.75 12.1202 21.5285 13.9818 19.4924 15.3489C17.4578 16.7149 14.6328 17.5679 11.5 17.5679C8.36719 17.5679 5.5422 16.7149 3.50763 15.3489C1.47146 13.9818 0.25 12.1202 0.25 10.0968C0.25 8.07347 1.47146 6.21182 3.50763 4.84475C5.5422 3.47873 8.36719 2.62573 11.5 2.62573C14.6328 2.62573 17.4578 3.47873 19.4924 4.84475C21.5285 6.21182 22.75 8.07347 22.75 10.0968Z" fill="#E6EDFF" stroke="#0049FF" stroke-width="0.5"/>
<path d="M22.75 10.0968C22.75 12.1201 21.5285 13.9818 19.4924 15.3488C17.4578 16.7148 14.6328 17.5678 11.5 17.5678C8.36719 17.5678 5.5422 16.7148 3.50763 15.3488C1.47146 13.9818 0.25 12.1201 0.25 10.0968V7.67407H22.75V10.0968Z" fill="#E6EDFF" stroke="#0049FF" stroke-width="0.5"/>
<path d="M22.75 7.72109C22.75 9.74444 21.5285 11.6061 19.4924 12.9732C17.4578 14.3392 14.6328 15.1922 11.5 15.1922C8.36719 15.1922 5.5422 14.3392 3.50763 12.9732C1.47146 11.6061 0.25 9.74444 0.25 7.72109C0.25 5.69774 1.47146 3.83609 3.50763 2.46901C5.5422 1.103 8.36719 0.25 11.5 0.25C14.6328 0.25 17.4578 1.103 19.4924 2.46901C21.5285 3.83609 22.75 5.69774 22.75 7.72109Z" fill="#E6EDFF" stroke="#0049FF" stroke-width="0.5"/>
<path d="M20.495 7.55982C20.495 9.02296 19.5369 10.3864 17.9055 11.397C16.278 12.4052 14.0139 13.037 11.4999 13.037C8.98591 13.037 6.72182 12.4052 5.0943 11.397C3.46297 10.3864 2.50482 9.02296 2.50482 7.55982C2.50482 6.09669 3.46297 4.7332 5.0943 3.72262C6.72182 2.7144 8.98591 2.08264 11.4999 2.08264C14.0139 2.08264 16.278 2.7144 17.9055 3.72262C19.5369 4.7332 20.495 6.09669 20.495 7.55982Z" stroke="#0049FF" stroke-width="0.5"/>
</svg>
