<svg width="50" height="50" viewBox="0 0 50 50" fill="none" xmlns="http://www.w3.org/2000/svg">
<circle cx="25" cy="25" r="25" fill="#FEE500"/>
<path d="M25.0724 12.0654C17.2943 12.0654 11.0217 17.0835 11.0217 23.1754C11.0217 27.1297 13.6311 30.5921 17.5452 32.5692L16.2205 37.5171C16.1955 37.5913 16.1916 37.6708 16.2094 37.7471C16.2271 37.8233 16.2657 37.8931 16.3208 37.9486C16.4012 38.0195 16.5047 38.0587 16.6119 38.059C16.7008 38.0518 16.7851 38.0167 16.8527 37.9586L22.5533 34.1148C23.3947 34.231 24.243 34.2913 25.0924 34.2954C32.8604 34.2954 39.143 29.2774 39.143 23.1754C39.143 17.0734 32.8403 12.0654 25.0724 12.0654Z" fill="#392020"/>
<path d="M15.9391 21.4189H14.4035C14.2132 21.4244 14.0252 21.3757 13.8616 21.2784C13.7889 21.2329 13.7264 21.1728 13.6781 21.102C13.6297 21.0312 13.5965 20.9511 13.5806 20.8669C13.5757 20.8135 13.5757 20.7598 13.5806 20.7064C13.5758 20.6064 13.5952 20.5068 13.6371 20.4159C13.6791 20.3251 13.7423 20.2457 13.8214 20.1845C13.9964 20.0578 14.2076 19.9908 14.4236 19.9937H19.0503C19.2421 19.987 19.4313 20.0396 19.5922 20.1443C19.6666 20.1878 19.7304 20.2474 19.779 20.3185C19.8276 20.3897 19.8598 20.4707 19.8732 20.5558C19.8781 20.6059 19.8781 20.6563 19.8732 20.7064C19.878 20.8078 19.8586 20.9088 19.8167 21.0013C19.7749 21.0937 19.7117 21.1749 19.6324 21.2382C19.4617 21.3648 19.2525 21.4286 19.0402 21.4189H17.5549V26.6979C17.5609 26.8104 17.5435 26.9229 17.5038 27.0282C17.464 27.1336 17.4028 27.2297 17.324 27.3101C17.2485 27.3871 17.1577 27.4474 17.0574 27.4872C16.9572 27.5269 16.8497 27.5452 16.7419 27.541C16.5535 27.5463 16.369 27.4861 16.2201 27.3704C16.0783 27.2574 15.9821 27.097 15.9491 26.9187C15.9392 26.8454 15.9392 26.7712 15.9491 26.6979L15.9391 21.4189Z" fill="#FEE500"/>
<path d="M20.3162 20.3851C20.3603 20.22 20.464 20.077 20.6072 19.9837C20.7599 19.8972 20.9338 19.8554 21.109 19.8632H21.4904C21.6764 19.8566 21.8605 19.9017 22.0223 19.9937C22.1938 20.109 22.3156 20.2845 22.3636 20.4855L24.3708 26.1559C24.4228 26.3039 24.4664 26.4547 24.5013 26.6076C24.5047 26.6711 24.5047 26.7347 24.5013 26.7983C24.5047 26.8961 24.4866 26.9934 24.4485 27.0836C24.4104 27.1737 24.353 27.2545 24.2805 27.3202C24.2101 27.3922 24.1257 27.449 24.0325 27.487C23.9392 27.525 23.8392 27.5433 23.7385 27.5409C23.5837 27.5563 23.4282 27.5192 23.2972 27.4354C23.1661 27.3517 23.067 27.2262 23.0159 27.0793L22.5944 25.8449H19.9549L19.5334 27.0793C19.4835 27.2291 19.3832 27.357 19.2496 27.4412C19.116 27.5254 18.9574 27.5606 18.8007 27.5409C18.631 27.5454 18.4648 27.4923 18.329 27.3904C18.1967 27.2852 18.1075 27.1353 18.0781 26.9689C18.0728 26.9122 18.0728 26.855 18.0781 26.7983C18.0609 26.6986 18.0609 26.5969 18.0781 26.4972C18.0781 26.3868 18.1484 26.2663 18.1885 26.1559L20.3162 20.3851ZM21.3198 21.6999L20.3664 24.7108H22.2632L21.3198 21.6999Z" fill="#FEE500"/>
<path d="M24.7311 20.7063C24.7209 20.481 24.8003 20.2609 24.9519 20.0941C25.029 20.0163 25.1215 19.9556 25.2235 19.9158C25.3255 19.8761 25.4347 19.8581 25.544 19.8631C25.732 19.8609 25.9155 19.921 26.0659 20.0338C26.2053 20.1515 26.2979 20.3153 26.3268 20.4954C26.3367 20.5653 26.3367 20.6364 26.3268 20.7063V25.9853H29.0868C29.2781 25.9828 29.4661 26.0349 29.6287 26.1357C29.7018 26.1808 29.7646 26.2408 29.813 26.3117C29.8614 26.3826 29.8944 26.4628 29.9098 26.5473C29.9098 26.5473 29.9098 26.6476 29.9098 26.6978C29.9145 26.7978 29.8951 26.8973 29.8532 26.9882C29.8113 27.079 29.748 27.1585 29.6689 27.2197C29.4939 27.3464 29.2827 27.4133 29.0667 27.4104H25.6745C25.4584 27.4243 25.2437 27.368 25.0623 27.2499C24.9 27.1285 24.7919 26.9483 24.7612 26.7481C24.7539 26.6378 24.7539 26.5271 24.7612 26.4168L24.7311 20.7063Z" fill="#FEE500"/>
<path d="M30.0906 20.7065C30.0846 20.482 30.1634 20.2634 30.3114 20.0943C30.4618 19.9577 30.6548 19.8769 30.8577 19.866C31.0606 19.855 31.2611 19.9144 31.4254 20.0341C31.5679 20.1508 31.6639 20.3144 31.6964 20.4957C31.7013 20.5659 31.7013 20.6364 31.6964 20.7065V23.1653L34.2355 20.2347C34.3334 20.1348 34.4373 20.041 34.5467 19.9538C34.6497 19.8924 34.7679 19.8611 34.8879 19.8634C35.0633 19.8624 35.2348 19.915 35.3797 20.014C35.4479 20.0599 35.5062 20.1192 35.551 20.1882C35.5958 20.2572 35.6263 20.3344 35.6406 20.4154C35.6447 20.4353 35.6447 20.4559 35.6406 20.4757C35.6357 20.4989 35.6357 20.5228 35.6406 20.5459C35.6402 20.6515 35.6126 20.7553 35.5603 20.8471C35.507 20.9442 35.4431 21.035 35.3696 21.1179L33.7036 22.9446L35.7108 26.0558V26.1561C35.8151 26.2999 35.8963 26.4591 35.9517 26.6279V26.678C35.9633 26.7943 35.9466 26.9117 35.9029 27.02C35.8592 27.1284 35.7898 27.2245 35.7008 27.3002C35.5334 27.4268 35.3286 27.4939 35.1187 27.491C34.9793 27.4967 34.8408 27.4655 34.7173 27.4006C34.5836 27.3109 34.4735 27.1905 34.3961 27.0493L32.5294 24.0385L31.6362 24.9719V26.6479C31.6422 26.8724 31.5633 27.091 31.4154 27.26C31.3361 27.3376 31.2417 27.3981 31.1382 27.4378C31.0346 27.4775 30.924 27.4956 30.8132 27.491C30.628 27.4949 30.4472 27.4345 30.3014 27.3203C30.1596 27.2073 30.0634 27.047 30.0304 26.8687C30.0205 26.7955 30.0205 26.7211 30.0304 26.6479L30.0906 20.7065Z" fill="#FEE500"/>
</svg>
