<svg width="50" height="50" viewBox="0 0 50 50" fill="none" xmlns="http://www.w3.org/2000/svg">
<circle cx="25" cy="25" r="24.5" fill="white" stroke="#777777"/>
<g clip-path="url(#clip0_6882_72065)">
<path d="M25 15.667L21.2667 19.4003L23.1334 21.267L26.8667 17.5336C28.4067 15.9936 30.9267 15.9936 32.4667 17.5336C34.0067 19.0736 34.0067 21.5936 32.4667 23.1336L28.7334 26.867L30.6001 28.7337L34.3334 25.0003C36.9094 22.4243 36.9094 18.243 34.3334 15.667C31.7574 13.0909 27.576 13.0909 25 15.667ZM26.8667 28.7337L23.1334 32.467C21.5934 34.007 19.0734 34.007 17.5334 32.467C15.9933 30.927 15.9933 28.407 17.5334 26.867L21.2667 23.1336L19.4 21.267L15.6667 25.0003C13.0907 27.5763 13.0907 31.7577 15.6667 34.3337C18.2427 36.9097 22.424 36.9097 25 34.3337L28.7334 30.6003L26.8667 28.7337ZM20.3334 27.8003L27.8 20.3336L29.6667 22.2003L22.2 29.667L20.3334 27.8003Z" fill="black"/>
</g>
<defs>
<clipPath id="clip0_6882_72065">
<rect width="28" height="28" fill="white" transform="translate(11 11)"/>
</clipPath>
</defs>
</svg>
