<svg width="28" height="28" viewBox="0 0 28 28" fill="none" xmlns="http://www.w3.org/2000/svg">
<circle cx="14" cy="14" r="13.25" fill="white" stroke="#0049FF" stroke-width="1.5"/>
<circle cx="14" cy="14" r="10.5" fill="white" stroke="#99B6FF"/>
<path d="M14.0182 10.35C14.6882 10.35 15.2532 10.45 15.7132 10.65C16.1832 10.84 16.5582 11.105 16.8382 11.445C17.1282 11.775 17.3332 12.145 17.4532 12.555L15.5332 13.245C15.4332 12.795 15.2632 12.455 15.0232 12.225C14.7832 11.995 14.4582 11.88 14.0482 11.88C13.6682 11.88 13.3432 11.97 13.0732 12.15C12.8032 12.32 12.5982 12.585 12.4582 12.945C12.3182 13.295 12.2482 13.735 12.2482 14.265C12.2482 14.795 12.3182 15.235 12.4582 15.585C12.6082 15.935 12.8182 16.195 13.0882 16.365C13.3682 16.535 13.6932 16.62 14.0632 16.62C14.3632 16.62 14.6182 16.57 14.8282 16.47C15.0382 16.36 15.2082 16.205 15.3382 16.005C15.4782 15.805 15.5732 15.565 15.6232 15.285L17.4832 15.885C17.3732 16.335 17.1682 16.73 16.8682 17.07C16.5682 17.41 16.1832 17.675 15.7132 17.865C15.2432 18.055 14.6982 18.15 14.0782 18.15C13.3082 18.15 12.6282 17.995 12.0382 17.685C11.4482 17.375 10.9932 16.93 10.6732 16.35C10.3532 15.77 10.1932 15.07 10.1932 14.25C10.1932 13.43 10.3532 12.73 10.6732 12.15C10.9932 11.57 11.4432 11.125 12.0232 10.815C12.6032 10.505 13.2682 10.35 14.0182 10.35Z" fill="#0049FF"/>
</svg>
