<svg width="22" height="22" viewBox="0 0 22 22" fill="none" xmlns="http://www.w3.org/2000/svg">
<path fill-rule="evenodd" clip-rule="evenodd" d="M8.02091 5.49992C8.02091 3.85457 9.35473 2.52075 11.0001 2.52075C12.6454 2.52075 13.9792 3.85457 13.9792 5.49992V6.41659H8.02091V5.49992ZM6.64591 7.79159V10.0833H8.02091V7.79159H13.9792V10.0833H15.3542V7.79159H19.7084V19.7083H2.29175V7.79159H6.64591ZM6.64591 6.41659V5.49992C6.64591 3.09518 8.59534 1.14575 11.0001 1.14575C13.4048 1.14575 15.3542 3.09518 15.3542 5.49992V6.41659H21.0834V21.0833H0.916748V6.41659H6.64591Z" fill="#0A0A0A"/>
<path d="M13.9792 6.41659V6.71659H14.2792V6.41659H13.9792ZM8.02091 6.41659H7.72091V6.71659H8.02091V6.41659ZM6.64591 10.0833H6.34591V10.3833H6.64591V10.0833ZM6.64591 7.79159H6.94591V7.49159H6.64591V7.79159ZM8.02091 10.0833V10.3833H8.32091V10.0833H8.02091ZM8.02091 7.79159V7.49159H7.72091V7.79159H8.02091ZM13.9792 7.79159H14.2792V7.49159H13.9792V7.79159ZM13.9792 10.0833H13.6792V10.3833H13.9792V10.0833ZM15.3542 10.0833V10.3833H15.6542V10.0833H15.3542ZM15.3542 7.79159V7.49159H15.0542V7.79159H15.3542ZM19.7084 7.79159H20.0084V7.49159H19.7084V7.79159ZM19.7084 19.7083V20.0083H20.0084V19.7083H19.7084ZM2.29175 19.7083H1.99175V20.0083H2.29175V19.7083ZM2.29175 7.79159V7.49159H1.99175V7.79159H2.29175ZM6.64591 6.41659V6.71659H6.94591V6.41659H6.64591ZM15.3542 6.41659H15.0542V6.71659H15.3542V6.41659ZM21.0834 6.41659H21.3834V6.11659H21.0834V6.41659ZM21.0834 21.0833V21.3833H21.3834V21.0833H21.0834ZM0.916748 21.0833H0.616748V21.3833H0.916748V21.0833ZM0.916748 6.41659V6.11659H0.616748V6.41659H0.916748ZM11.0001 2.22075C9.18905 2.22075 7.72091 3.68888 7.72091 5.49992H8.32091C8.32091 4.02025 9.52042 2.82075 11.0001 2.82075V2.22075ZM14.2792 5.49992C14.2792 3.68888 12.8111 2.22075 11.0001 2.22075V2.82075C12.4797 2.82075 13.6792 4.02025 13.6792 5.49992H14.2792ZM14.2792 6.41659V5.49992H13.6792V6.41659H14.2792ZM13.9792 6.11659H8.02091V6.71659H13.9792V6.11659ZM7.72091 5.49992V6.41659H8.32091V5.49992H7.72091ZM6.94591 10.0833V7.79159H6.34591V10.0833H6.94591ZM8.02091 9.78325H6.64591V10.3833H8.02091V9.78325ZM7.72091 7.79159V10.0833H8.32091V7.79159H7.72091ZM13.9792 7.49159H8.02091V8.09159H13.9792V7.49159ZM14.2792 10.0833V7.79159H13.6792V10.0833H14.2792ZM15.3542 9.78325H13.9792V10.3833H15.3542V9.78325ZM15.0542 7.79159V10.0833H15.6542V7.79159H15.0542ZM19.7084 7.49159H15.3542V8.09159H19.7084V7.49159ZM20.0084 19.7083V7.79159H19.4084V19.7083H20.0084ZM2.29175 20.0083H19.7084V19.4083H2.29175V20.0083ZM1.99175 7.79159V19.7083H2.59175V7.79159H1.99175ZM6.64591 7.49159H2.29175V8.09159H6.64591V7.49159ZM6.94591 6.41659V5.49992H6.34591V6.41659H6.94591ZM6.94591 5.49992C6.94591 3.26086 8.76102 1.44575 11.0001 1.44575V0.845752C8.42965 0.845752 6.34591 2.92949 6.34591 5.49992H6.94591ZM11.0001 1.44575C13.2391 1.44575 15.0542 3.26086 15.0542 5.49992H15.6542C15.6542 2.92949 13.5705 0.845752 11.0001 0.845752V1.44575ZM15.0542 5.49992V6.41659H15.6542V5.49992H15.0542ZM21.0834 6.11659H15.3542V6.71659H21.0834V6.11659ZM21.3834 21.0833V6.41659H20.7834V21.0833H21.3834ZM0.916748 21.3833H21.0834V20.7833H0.916748V21.3833ZM0.616748 6.41659V21.0833H1.21675V6.41659H0.616748ZM6.64591 6.11659H0.916748V6.71659H6.64591V6.11659Z" fill="black"/>
</svg>
