<svg width="160" height="112" viewBox="0 0 160 112" fill="none" xmlns="http://www.w3.org/2000/svg">
<mask id="path-1-inside-1_6882_72074" fill="white">
<path fill-rule="evenodd" clip-rule="evenodd" d="M160 0H0V100H20.5718L27.5 112L34.4282 100H160V0Z"/>
</mask>
<path d="M0 0V-1H-1V0H0ZM160 0H161V-1H160V0ZM0 100H-1V101H0V100ZM20.5718 100L21.4378 99.5L21.1491 99H20.5718V100ZM27.5 112L26.634 112.5L27.5 114L28.366 112.5L27.5 112ZM34.4282 100V99H33.8509L33.5622 99.5L34.4282 100ZM160 100V101H161V100H160ZM0 1H160V-1H0V1ZM1 100V0H-1V100H1ZM20.5718 99H0V101H20.5718V99ZM28.366 111.5L21.4378 99.5L19.7058 100.5L26.634 112.5L28.366 111.5ZM33.5622 99.5L26.634 111.5L28.366 112.5L35.2942 100.5L33.5622 99.5ZM160 99H34.4282V101H160V99ZM159 0V100H161V0H159Z" fill="#E4E4E4" mask="url(#path-1-inside-1_6882_72074)"/>
</svg>
