<svg width="24" height="24" viewBox="0 0 24 24" fill="none" xmlns="http://www.w3.org/2000/svg">
<path fill-rule="evenodd" clip-rule="evenodd" d="M12 3.5C8.66428 3.5 6 6.15647 6 9.38462V13.0769V15.5H18V13.0769V9.38462C18 6.15647 15.3357 3.5 12 3.5ZM19.5 15.5V13.0769V9.38462C19.5 5.30621 16.1421 2 12 2C7.85786 2 4.5 5.30621 4.5 9.38462V13.0769V15.5H3V17H4.5H6H18H19.5H21V15.5H19.5ZM9.75 18C9.75 19.2426 10.7574 20.25 12 20.25C13.2426 20.25 14.25 19.2426 14.25 18H15.75C15.75 20.0711 14.0711 21.75 12 21.75C9.92893 21.75 8.25 20.0711 8.25 18H9.75Z" fill="#0A0A0A"/>
</svg>
