<svg width="160" height="112" viewBox="0 0 160 112" fill="none" xmlns="http://www.w3.org/2000/svg">
<mask id="path-1-inside-1_6882_72071" fill="white">
<path fill-rule="evenodd" clip-rule="evenodd" d="M160 0H0V100H124.572L131.5 112L138.428 100H160V0Z"/>
</mask>
<path d="M0 0V-1H-1V0H0ZM160 0H161V-1H160V0ZM0 100H-1V101H0V100ZM124.572 100L125.438 99.5L125.149 99H124.572V100ZM131.5 112L130.634 112.5L131.5 114L132.366 112.5L131.5 112ZM138.428 100V99H137.851L137.562 99.5L138.428 100ZM160 100V101H161V100H160ZM0 1H160V-1H0V1ZM1 100V0H-1V100H1ZM124.572 99H0V101H124.572V99ZM132.366 111.5L125.438 99.5L123.706 100.5L130.634 112.5L132.366 111.5ZM137.562 99.5L130.634 111.5L132.366 112.5L139.294 100.5L137.562 99.5ZM160 99H138.428V101H160V99ZM159 0V100H161V0H159Z" fill="#E4E4E4" mask="url(#path-1-inside-1_6882_72071)"/>
</svg>
