<svg width="24" height="24" viewBox="0 0 24 24" fill="none" xmlns="http://www.w3.org/2000/svg">
<path fill-rule="evenodd" clip-rule="evenodd" d="M15.5 9.5C15.5 12.8137 12.8137 15.5 9.5 15.5C6.18629 15.5 3.5 12.8137 3.5 9.5C3.5 6.18629 6.18629 3.5 9.5 3.5C12.8137 3.5 15.5 6.18629 15.5 9.5ZM14.2465 15.3072C12.9536 16.3652 11.301 17 9.5 17C5.35786 17 2 13.6421 2 9.5C2 5.35786 5.35786 2 9.5 2C13.6421 2 17 5.35786 17 9.5C17 11.301 16.3652 12.9536 15.3072 14.2465L22.5303 21.4697L21.4697 22.5303L14.2465 15.3072Z" fill="#0A0A0A"/>
</svg>
