<svg width="64" height="18" viewBox="0 0 64 18" fill="none" xmlns="http://www.w3.org/2000/svg">
<path d="M8.60156 4.21094H12.2812C12.1172 1.66797 10.0312 0.109375 6.60938 0.109375C3.17578 0.109375 1.00781 1.62109 1.03125 4.14062C1.00781 6.08594 2.27344 7.35156 4.78125 7.82031L6.96094 8.21875C8.0625 8.45312 8.55469 8.79297 8.57812 9.36719C8.55469 10.0703 7.81641 10.4805 6.75 10.4922C5.56641 10.4805 4.79297 10 4.64062 9.08594H0.703125C0.972656 11.6172 3.08203 13.2344 6.72656 13.2344C10.1719 13.2344 12.5625 11.5469 12.5859 8.94531C12.5625 7.09375 11.3438 5.99219 8.8125 5.5L6.39844 5.03125C5.30859 4.82031 4.93359 4.41016 4.94531 3.92969C4.93359 3.26172 5.69531 2.82812 6.67969 2.82812C7.72266 2.82812 8.49609 3.36719 8.60156 4.21094ZM20.4375 13.2344C23.9766 13.2344 26.1914 11.1836 26.2969 8.07812H22.6172C22.4414 9.42578 21.6211 10.1758 20.4844 10.1641C19.0195 10.1758 18.0586 8.93359 18.0703 6.625C18.0586 4.35156 19.0312 3.12109 20.4844 3.10938C21.668 3.12109 22.4414 3.92969 22.6172 5.21875H26.2969C26.2031 2.125 23.918 0.109375 20.4375 0.109375C16.4531 0.109375 14.0391 2.76953 14.0391 6.67188C14.0391 10.5625 16.4297 13.2344 20.4375 13.2344ZM28.3359 13H32.2969V6.03906C32.2852 4.50391 33.375 3.47266 34.8516 3.48438C35.332 3.47266 36.0469 3.55469 36.4219 3.67188V0.226562C36.0938 0.15625 35.6602 0.0976562 35.2969 0.0859375C33.8906 0.0976562 32.7656 0.90625 32.2969 2.57031H32.1797V0.273438H28.3359V13ZM36.9609 9.46094C36.9492 11.9805 38.7188 13.2227 41.1562 13.2344C42.9375 13.2227 44.168 12.5078 44.8594 11.2188H44.9531V13H48.6797V4.35156C48.668 1.59766 46.2188 0.109375 43.0781 0.109375C39.5039 0.109375 37.6055 1.96094 37.4297 4.21094H41.1094C41.2617 3.37891 41.9414 2.91016 42.9844 2.92188C44.0625 2.91016 44.7188 3.41406 44.7188 4.30469V5.33594C44.1797 5.35938 42.5977 5.41797 41.6719 5.47656C39.1406 5.62891 36.9492 6.63672 36.9609 9.46094ZM40.7109 9.29688C40.6992 8.45312 41.332 7.90234 42.3281 7.79688C42.9258 7.73828 44.2617 7.66797 44.7422 7.65625V8.47656C44.7539 9.73047 43.6992 10.6094 42.3516 10.6094C41.3906 10.6094 40.6992 10.1523 40.7109 9.29688ZM51.0938 17.7812H55.0547V10.9375H55.1484C55.6406 12.0977 56.7773 13.1875 58.7344 13.1875C61.5586 13.1875 63.8203 10.9609 63.8203 6.64844C63.8203 2.18359 61.4297 0.109375 58.7344 0.109375C56.707 0.109375 55.6172 1.30469 55.1484 2.45312H55.0078V0.273438H51.0938V17.7812ZM54.9609 6.625C54.9609 4.51562 55.8398 3.20312 57.375 3.20312C58.9336 3.20312 59.7773 4.55078 59.7656 6.625C59.7773 8.72266 58.9219 10.0938 57.375 10.0938C55.8516 10.0938 54.9609 8.73438 54.9609 6.625Z" fill="black"/>
</svg>
